<svg xmlns="http://www.w3.org/2000/svg" viewBox="0 0 420 310" role="img" aria-label="Charmé">
  <g fill="#1C1B19">
    <path d="M6 15 L96 15 L96 41 L32 41 L32 104 L96 104 L96 130 L6 130 Z"/>
    <path d="M118 15 L144 15 L144 130 L118 130 Z M176 15 L202 15 L202 130 L176 130 Z M144 60 L176 60 L176 85 L144 85 Z"/>
    <path d="M256 15 L268 15 L312 130 L286 130 L277 103 L247 103 L238 130 L212 130 Z"/>
    <path d="M322 15 L384 15 L398 30 L398 53 L384 68 L348 68 L398 130 L370 130 L348 76 L348 130 L322 130 Z M348 32 L348 52 L374 52 L374 32 Z"/>
    <g transform="translate(100,165)">
      <path d="M0 15 L26 15 L26 130 L0 130 Z M78 15 L104 15 L104 130 L78 130 Z M26 15 L44 15 L54 100 L36 100 Z M60 15 L78 15 L72 100 L54 100 Z"/>
      <path d="M124 15 L150 15 L150 130 L124 130 Z M150 15 L202 15 L202 41 L150 41 Z M150 51 L192 51 L192 75 L150 75 Z M150 104 L202 104 L202 130 L150 130 Z"/>
      <g fill="#C9A227">
        <path d="M166 9 L183 -8 L189 -2 L172 15 Z"/>
        <path d="M180 -4 A6 6 0 1 1 192 -4 A6 6 0 1 1 180 -4 Z M183.5 -4 A2.5 2.5 0 1 0 188.5 -4 A2.5 2.5 0 1 0 183.5 -4 Z"/>
      </g>
    </g>
  </g>
</svg>
