<svg xmlns="http://www.w3.org/2000/svg" viewBox="0 0 640 150" role="img" aria-label="Charmé">
  <g fill="#1C1B19">
    <path d="M6 30 L96 30 L96 56 L32 56 L32 104 L96 104 L96 130 L6 130 Z"/>
    <path d="M118 30 L144 30 L144 130 L118 130 Z M176 30 L202 30 L202 130 L176 130 Z M144 67 L176 67 L176 93 L144 93 Z"/>
    <path d="M256 30 L268 30 L312 130 L286 130 L277 104 L247 104 L238 130 L212 130 Z"/>
    <path d="M322 30 L384 30 L398 44 L398 66 L384 80 L348 80 L398 130 L370 130 L348 88 L348 130 L322 130 Z M348 46 L348 64 L374 64 L374 46 Z"/>
    <path d="M420 30 L446 30 L446 130 L420 130 Z M498 30 L524 30 L524 130 L498 130 Z M446 30 L464 30 L474 100 L456 100 Z M480 30 L498 30 L492 100 L474 100 Z"/>
    <path d="M538 30 L564 30 L564 130 L538 130 Z M564 30 L616 30 L616 56 L564 56 Z M564 66 L606 66 L606 90 L564 90 Z M564 104 L616 104 L616 130 L564 130 Z"/>
    <path d="M580 25 L597 8 L603 14 L586 31 Z"/>
    <path d="M594 11 A6 6 0 1 1 606 11 A6 6 0 1 1 594 11 Z M597.5 11 A2.5 2.5 0 1 0 602.5 11 A2.5 2.5 0 1 0 597.5 11 Z"/>
  </g>
</svg>
